                                                                        S      1
,,,12Hkrishka-rfid,41HAutoCAD 2020 — Русский (Russian),62HAutodG      1
esk Translation Framework DWG producer (atf_dwg_producer),32,38,7,99,15,G      2
,1.,2,2HMM,1,0.08,15H20200126.234239,0.01,10000.,,7Hunknown,11,0,15H2020G      3
0126.233849;                                                            G      4
     186       1                       0                        00000000D      1
     186            -169       1       0                               0D      2
     514       2                                                00010000D      3
     514                       2       1                               0D      4
     510       4                                                00010000D      5
     510            -169       1       1                               0D      6
     510       5                                                00010000D      7
     510            -169       1       1                               0D      8
     510       6                                                00010000D      9
     510            -169       1       1                               0D     10
     510       7                                                00010000D     11
     510            -169       1       1                               0D     12
     510       8                                                00010000D     13
     510            -169       1       1                               0D     14
     510       9                                                00010000D     15
     510            -169       1       1                               0D     16
     510      10                                                00010000D     17
     510            -169       1       1                               0D     18
     510      11                                                00010000D     19
     510            -169       1       1                               0D     20
     510      12                                                00010000D     21
     510            -169       1       1                               0D     22
     510      13                                                00010000D     23
     510            -169       1       1                               0D     24
     510      14                                                00010000D     25
     510            -169       1       1                               0D     26
     510      15                                                00010000D     27
     510            -169       1       1                               0D     28
     510      16                                                00010000D     29
     510            -169       1       1                               0D     30
     510      17                                                00010000D     31
     510            -169       1       1                               0D     32
     508      18                                                00010000D     33
     508                       1       1                               0D     34
     508      19                                                00010000D     35
     508                       1       1                               0D     36
     508      20                                                00010000D     37
     508                       1       1                               0D     38
     508      21                                                00010000D     39
     508                       1       1                               0D     40
     508      22                                                00010000D     41
     508                       2       1                               0D     42
     508      24                                                00010000D     43
     508                       1       1                               0D     44
     508      25                                                00010000D     45
     508                       1       1                               0D     46
     508      26                                                00010000D     47
     508                       2       1                               0D     48
     508      28                                                00010000D     49
     508                       2       1                               0D     50
     508      30                                                00010000D     51
     508                       1       1                               0D     52
     508      31                                                00010000D     53
     508                       1       1                               0D     54
     508      32                                                00010000D     55
     508                       2       1                               0D     56
     508      34                                                00010000D     57
     508                       1       1                               0D     58
     508      35                                                00010000D     59
     508                       2       1                               0D     60
     126      37                                                00010000D     61
     126       0               3       0                               0D     62
     126      40                                                00010000D     63
     126       0               4       0                               0D     64
     126      44                                                00010000D     65
     126       0               3       0                               0D     66
     126      47                                                00010000D     67
     126       0               4       0                               0D     68
     126      51                                                00010000D     69
     126       0               3       0                               0D     70
     126      54                                                00010000D     71
     126       0               4       0                               0D     72
     126      58                                                00010000D     73
     126       0               3       0                               0D     74
     126      61                                                00010000D     75
     126       0               4       0                               0D     76
     126      65                                                00010000D     77
     126       0               5       0                               0D     78
     126      70                                                00010000D     79
     126       0               3       0                               0D     80
     126      73                                                00010000D     81
     126       0               6       0                               0D     82
     126      79                                                00010000D     83
     126       0               6       0                               0D     84
     126      85                                                00010000D     85
     126       0               3       0                               0D     86
     126      88                                                00010000D     87
     126       0               6       0                               0D     88
     126      94                                                00010000D     89
     126       0               6       0                               0D     90
     126     100                                                00010000D     91
     126       0               3       0                               0D     92
     126     103                                                00010000D     93
     126       0               6       0                               0D     94
     126     109                                                00010000D     95
     126       0               3       0                               0D     96
     126     112                                                00010000D     97
     126       0               5       0                               0D     98
     126     117                                                00010000D     99
     126       0               3       0                               0D    100
     126     120                                                00010000D    101
     126       0               6       0                               0D    102
     126     126                                                00010000D    103
     126       0               3       0                               0D    104
     126     129                                                00010000D    105
     126       0               3       0                               0D    106
     126     132                                                00010000D    107
     126       0               3       0                               0D    108
     126     135                                                00010000D    109
     126       0               3       0                               0D    110
     126     138                                                00010000D    111
     126       0               3       0                               0D    112
     126     141                                                00010000D    113
     126       0               3       0                               0D    114
     126     144                                                00010000D    115
     126       0               3       0                               0D    116
     126     147                                                00010000D    117
     126       0               3       0                               0D    118
     126     150                                                00010000D    119
     126       0               3       0                               0D    120
     126     153                                                00010000D    121
     126       0               3       0                               0D    122
     126     156                                                00010000D    123
     126       0               3       0                               0D    124
     126     159                                                00010000D    125
     126       0               4       0                               0D    126
     126     163                                                00010000D    127
     126       0               3       0                               0D    128
     126     166                                                00010000D    129
     126       0               3       0                               0D    130
     126     169                                                00010000D    131
     126       0               4       0                               0D    132
     128     173                                                00010000D    133
     128       0    -169       7       0                               0D    134
     128     180                                                00010000D    135
     128       0    -169       7       0                               0D    136
     128     187                                                00010000D    137
     128       0    -169       8       0                               0D    138
     128     195                                                00010000D    139
     128       0    -169       9       0                               0D    140
     128     204                                                00010000D    141
     128       0    -169       6       0                               0D    142
     128     210                                                00010000D    143
     128       0    -169       8       0                               0D    144
     128     218                                                00010000D    145
     128       0    -169       9       0                               0D    146
     128     227                                                00010000D    147
     128       0    -169       5       0                               0D    148
     128     232                                                00010000D    149
     128       0    -169       6       0                               0D    150
     128     238                                                00010000D    151
     128       0    -169       5       0                               0D    152
     128     243                                                00010000D    153
     128       0    -169       5       0                               0D    154
     128     248                                                00010000D    155
     128       0    -169       6       0                               0D    156
     128     254                                                00010000D    157
     128       0    -169       5       0                               0D    158
     128     259                                                00010000D    159
     128       0    -169       6       0                               0D    160
     502     265                                                00010000D    161
     502                      16       1                               0D    162
     504     281                                                00010001D    163
     504                      10       1                               0D    164
     406     291                                                00000000D    165
     406                       1      15                               0D    166
     406     292                       0                        00000000D    167
     406            -169       1       3                               0D    168
     314     293                                                00000200D    169
     314                       1       0                               0D    170
186,3,1,0,0,1,165;                                                     1P      1
514,14,5,1,7,1,9,1,11,1,13,1,15,1,17,1,19,1,21,1,23,1,25,1,27,1,       3P      2
29,1,31,1;                                                             3P      3
510,133,1,1,33;                                                        5P      4
510,135,1,1,35;                                                        7P      5
510,137,1,1,37;                                                        9P      6
510,139,1,1,39;                                                       11P      7
510,141,1,1,41;                                                       13P      8
510,143,1,1,43;                                                       15P      9
510,145,1,1,45;                                                       17P     10
510,147,1,1,47;                                                       19P     11
510,149,1,1,49;                                                       21P     12
510,151,1,1,51;                                                       23P     13
510,153,1,1,53;                                                       25P     14
510,155,1,1,55;                                                       27P     15
510,157,1,1,57;                                                       29P     16
510,159,1,1,59;                                                       31P     17
508,4,0,163,1,0,0,0,163,2,0,0,0,163,3,0,0,0,163,4,0,0;                33P     18
508,4,0,163,5,0,0,0,163,6,0,0,0,163,7,0,0,0,163,8,0,0;                35P     19
508,4,0,163,1,1,0,0,163,9,0,0,0,163,10,0,0,0,163,11,0,0;              37P     20
508,4,0,163,5,1,0,0,163,12,0,0,0,163,13,1,0,0,163,14,0,0;             39P     21
508,8,0,163,4,1,0,0,163,15,1,0,0,163,16,1,0,0,163,12,1,0,0,163,       41P     22
8,1,0,0,163,17,1,0,0,163,18,1,0,0,163,9,1,0;                          41P     23
508,4,0,163,7,1,0,0,163,19,0,0,0,163,20,0,0,0,163,17,0,0;             43P     24
508,4,0,163,3,1,0,0,163,21,0,0,0,163,22,0,0,0,163,15,0,0;             45P     25
508,6,0,163,2,1,0,0,163,11,1,0,0,163,23,1,0,0,163,24,1,0,0,163,       47P     26
25,1,0,0,163,21,1,0;                                                  47P     27
508,6,0,163,6,1,0,0,163,14,1,0,0,163,26,1,0,0,163,27,1,0,0,163,       49P     28
28,1,0,0,163,19,1,0;                                                  49P     29
508,4,0,163,29,1,0,0,163,30,1,0,0,163,31,1,0,0,163,32,1,0;            51P     30
508,4,0,163,33,1,0,0,163,24,0,0,0,163,34,0,0,0,163,32,0,0;            53P     31
508,8,0,163,35,1,0,0,163,26,0,0,0,163,13,0,0,0,163,16,0,0,0,163,      55P     32
22,1,0,0,163,25,0,0,0,163,33,0,0,0,163,31,0,0;                        55P     33
508,4,0,163,36,1,0,0,163,27,0,0,0,163,35,0,0,0,163,30,0,0;            57P     34
508,8,0,163,36,0,0,0,163,29,0,0,0,163,34,1,0,0,163,23,0,0,0,163,      59P     35
10,1,0,0,163,18,0,0,0,163,20,1,0,0,163,28,0,0;                        59P     36
126,1,1,0,0,1,0,-1.4,-1.4,1.4,1.4,1.,1.,146.100445632251,             61P     37
-34.1809545567455,2.8,146.100445632251,-34.1809545567455,0.,          61P     38
-1.4,1.4,0.,0.,0.;                                                    61P     39
126,1,1,0,0,1,0,-44.2230823708833,-44.2230823708833,                  63P     40
76.7230823708832,76.7230823708832,1.,1.,25.1542808904848,             63P     41
-34.1809545567455,2.8,146.100445632251,-34.1809545567455,2.8,         63P     42
-44.2230823708833,76.7230823708832,0.,0.,0.;                          63P     43
126,1,1,0,0,1,0,-1.4,-1.4,1.4,1.4,1.,1.,25.1542808904848,             65P     44
-34.1809545567455,0.,25.1542808904848,-34.1809545567455,2.8,          65P     45
-1.4,1.4,0.,0.,0.;                                                    65P     46
126,1,1,0,0,1,0,-104.923082370883,-104.923082370883,                  67P     47
16.0230823708833,16.0230823708833,1.,1.,146.100445632251,             67P     48
-34.1809545567455,0.,25.1542808904848,-34.1809545567455,0.,           67P     49
-104.923082370883,16.0230823708833,0.,0.,0.;                          67P     50
126,1,1,0,0,1,0,-1.4,-1.4,1.4,1.4,1.,1.,25.1542808904848,             69P     51
31.6190454432545,2.8,25.1542808904848,31.6190454432545,0.,-1.4,       69P     52
1.4,0.,0.,0.;                                                         69P     53
126,1,1,0,0,1,0,-104.923082370883,-104.923082370883,                  71P     54
16.0230823708833,16.0230823708833,1.,1.,146.100445632251,             71P     55
31.6190454432545,2.8,25.1542808904848,31.6190454432545,2.8,           71P     56
-104.923082370883,16.0230823708833,0.,0.,0.;                          71P     57
126,1,1,0,0,1,0,-1.4,-1.4,1.4,1.4,1.,1.,146.100445632251,             73P     58
31.6190454432545,0.,146.100445632251,31.6190454432545,2.8,-1.4,       73P     59
1.4,0.,0.,0.;                                                         73P     60
126,1,1,0,0,1,0,-16.0230823708833,-16.0230823708833,                  75P     61
104.923082370883,104.923082370883,1.,1.,25.1542808904848,             75P     62
31.6190454432545,0.,146.100445632251,31.6190454432545,0.,             75P     63
-16.0230823708833,104.923082370883,0.,0.,0.;                          75P     64
126,2,2,0,0,0,0,0.,0.,0.,0.618728690672246,0.618728690672246,         77P     65
0.618728690672246,1.,0.952527289419217,1.,147.027363261368,           77P     66
-31.2809545567455,0.,147.027363261368,-32.8790884000502,0.,           77P     67
146.100445632251,-34.1809545567455,0.,0.,0.618728690672246,0.,        77P     68
0.,0.;                                                                77P     69
126,1,1,0,0,1,0,-1.4,-1.4,1.4,1.4,1.,1.,147.027363261368,             79P     70
-31.2809545567455,2.8,147.027363261368,-31.2809545567455,0.,          79P     71
-1.4,1.4,0.,0.,0.;                                                    79P     72
126,2,2,0,0,0,0,5.66445661650734,5.66445661650734,                    81P     73
5.66445661650734,6.28318530717959,6.28318530717959,                   81P     74
6.28318530717959,1.,0.952527289419204,1.,146.100445632251,            81P     75
-34.1809545567455,2.8,147.027363261368,-32.8790884000502,2.8,         81P     76
147.027363261368,-31.2809545567455,2.8,5.66445661650734,              81P     77
6.28318530717959,0.,0.,0.;                                            81P     78
126,2,2,0,0,0,0,3.14159265358979,3.14159265358979,                    83P     79
3.14159265358979,3.76032134426204,3.76032134426204,                   83P     80
3.76032134426204,1.,0.95252728941922,1.,24.2273632613681,             83P     81
28.7190454432545,0.,24.2273632613681,30.3171792865592,0.,             83P     82
25.1542808904848,31.6190454432545,0.,3.14159265358979,                83P     83
3.76032134426204,0.,0.,0.;                                            83P     84
126,1,1,0,0,1,0,-1.4,-1.4,1.4,1.4,1.,1.,24.2273632613681,             85P     85
28.7190454432545,0.,24.2273632613681,28.7190454432545,2.8,-1.4,       85P     86
1.4,0.,0.,0.;                                                         85P     87
126,2,2,0,0,0,0,2.52286396291755,2.52286396291755,                    87P     88
2.52286396291755,3.14159265358979,3.14159265358979,                   87P     89
3.14159265358979,1.,0.952527289419221,1.,25.1542808904848,            87P     90
31.6190454432545,2.8,24.2273632613681,30.3171792865592,2.8,           87P     91
24.2273632613681,28.7190454432545,2.8,2.52286396291755,               87P     92
3.14159265358979,0.,0.,0.;                                            87P     93
126,2,2,0,0,0,0,2.52286396291755,2.52286396291755,                    89P     94
2.52286396291755,3.14159265358979,3.14159265358979,                   89P     95
3.14159265358979,1.,0.952527289419225,1.,25.1542808904848,            89P     96
-34.1809545567455,0.,24.2273632613681,-32.8790884000502,0.,           89P     97
24.2273632613681,-31.2809545567455,0.,2.52286396291755,               89P     98
3.14159265358979,0.,0.,0.;                                            89P     99
126,1,1,0,0,1,0,-30.,-30.,30.,30.,1.,1.,24.227363261368,              91P    100
-31.2809545567455,0.,24.227363261368,28.7190454432545,0.,-30.,        91P    101
30.,0.,0.,0.;                                                         91P    102
126,2,2,0,0,0,0,5.66445661650734,5.66445661650734,                    93P    103
5.66445661650734,6.28318530717959,6.28318530717959,                   93P    104
6.28318530717959,1.,0.952527289419204,1.,146.100445632251,            93P    105
31.6190454432545,0.,147.027363261368,30.3171792865592,0.,             93P    106
147.027363261368,28.7190454432545,0.,5.66445661650734,                93P    107
6.28318530717959,0.,0.,0.;                                            93P    108
126,1,1,0,0,1,0,-30.,-30.,30.,30.,1.,1.,147.027363261368,             95P    109
28.7190454432545,0.,147.027363261368,-31.2809545567455,0.,-30.,       95P    110
30.,0.,0.,0.;                                                         95P    111
126,2,2,0,0,0,0,0.,0.,0.,0.618728690672246,0.618728690672246,         97P    112
0.618728690672246,1.,0.952527289419212,1.,147.027363261368,           97P    113
28.7190454432545,2.8,147.027363261368,30.3171792865592,2.8,           97P    114
146.100445632251,31.6190454432545,2.8,0.,0.618728690672246,0.,        97P    115
0.,0.;                                                                97P    116
126,1,1,0,0,1,0,-1.4,-1.4,1.4,1.4,1.,1.,147.027363261368,             99P    117
28.7190454432545,0.,147.027363261368,28.7190454432545,2.8,-1.4,       99P    118
1.4,0.,0.,0.;                                                         99P    119
126,2,2,0,0,0,0,3.14159265358979,3.14159265358979,                   101P    120
3.14159265358979,3.76032134426204,3.76032134426204,                  101P    121
3.76032134426204,1.,0.952527289419223,1.,24.2273632613681,           101P    122
-31.2809545567455,2.8,24.2273632613681,-32.8790884000502,2.8,        101P    123
25.1542808904848,-34.1809545567455,2.8,3.14159265358979,             101P    124
3.76032134426204,0.,0.,0.;                                           101P    125
126,1,1,0,0,1,0,-1.4,-1.4,1.4,1.4,1.,1.,24.227363261368,             103P    126
-31.2809545567455,0.,24.227363261368,-31.2809545567455,2.8,-1.4,     103P    127
1.4,0.,0.,0.;                                                        103P    128
126,1,1,0,0,1,0,-30.,-30.,-29.75,-29.75,1.,1.,147.027363261368,      105P    129
-31.2809545567455,2.8,147.027363261368,-31.0309545567455,2.8,        105P    130
-30.,-29.75,0.,0.,0.;                                                105P    131
126,1,1,0,0,1,0,-61.4,-61.4,61.4,61.4,1.,1.,147.027363261368,        107P    132
-31.0309545567455,2.8,24.227363261368,-31.0309545567455,2.8,         107P    133
-61.4,61.4,0.,0.,0.;                                                 107P    134
126,1,1,0,0,1,0,29.75,29.75,30.,30.,1.,1.,24.227363261368,           109P    135
-31.0309545567455,2.8,24.227363261368,-31.2809545567455,2.8,         109P    136
29.75,30.,0.,0.,0.;                                                  109P    137
126,1,1,0,0,1,0,-30.,-30.,-29.75,-29.75,1.,1.,24.227363261368,       111P    138
28.7190454432545,2.8,24.227363261368,28.4690454432545,2.8,-30.,      111P    139
-29.75,0.,0.,0.;                                                     111P    140
126,1,1,0,0,1,0,-61.4,-61.4,61.4,61.4,1.,1.,24.227363261368,         113P    141
28.4690454432545,2.8,147.027363261368,28.4690454432545,2.8,          113P    142
-61.4,61.4,0.,0.,0.;                                                 113P    143
126,1,1,0,0,1,0,29.75,29.75,30.,30.,1.,1.,147.027363261368,          115P    144
28.4690454432545,2.8,147.027363261368,28.7190454432545,2.8,          115P    145
29.75,30.,0.,0.,0.;                                                  115P    146
126,1,1,0,0,1,0,-29.75,-29.75,29.75,29.75,1.,1.,                     117P    147
147.027363261368,-31.0309545567455,4.9,147.027363261368,             117P    148
28.4690454432545,4.9,-29.75,29.75,0.,0.,0.;                          117P    149
126,1,1,0,0,1,0,-61.4,-61.4,61.4,61.4,1.,1.,147.027363261368,        119P    150
28.4690454432545,4.9,24.227363261368,28.4690454432545,4.9,-61.4,     119P    151
61.4,0.,0.,0.;                                                       119P    152
126,1,1,0,0,1,0,-29.75,-29.75,29.75,29.75,1.,1.,24.227363261368,     121P    153
28.4690454432545,4.9,24.227363261368,-31.0309545567455,4.9,          121P    154
-29.75,29.75,0.,0.,0.;                                               121P    155
126,1,1,0,0,1,0,-61.4,-61.4,61.4,61.4,1.,1.,24.227363261368,         123P    156
-31.0309545567455,4.9,147.027363261368,-31.0309545567455,4.9,        123P    157
-61.4,61.4,0.,0.,0.;                                                 123P    158
126,1,1,0,0,1,0,-0.0499999999999998,-0.0499999999999998,2.05,        125P    159
2.05,1.,1.,24.227363261368,-31.0309545567455,4.9,                    125P    160
24.227363261368,-31.0309545567455,2.8,-0.0499999999999998,2.05,      125P    161
0.,0.,0.;                                                            125P    162
126,1,1,0,0,1,0,-1.1,-1.1,1.,1.,1.,1.,147.027363261368,              127P    163
-31.0309545567455,4.9,147.027363261368,-31.0309545567455,2.8,        127P    164
-1.1,1.,0.,0.,0.;                                                    127P    165
126,1,1,0,0,1,0,-0.0499999999999998,-0.0499999999999998,2.05,        129P    166
2.05,1.,1.,24.227363261368,28.4690454432545,4.9,24.227363261368,     129P    167
28.4690454432545,2.8,-0.0499999999999998,2.05,0.,0.,0.;              129P    168
126,1,1,0,0,1,0,-0.0499999999999998,-0.0499999999999998,2.05,        131P    169
2.05,1.,1.,147.027363261368,28.4690454432545,4.9,                    131P    170
147.027363261368,28.4690454432545,2.8,-0.0499999999999998,2.05,      131P    171
0.,0.,0.;                                                            131P    172
128,1,1,1,1,0,0,1,0,0,-1.551,-1.551,1.251,1.251,                     133P    173
-27.9740823708833,-27.9740823708833,92.9740823708833,                133P    174
92.9740823708833,1.,1.,1.,1.,25.1532808904848,-34.1809545567455,     133P    175
2.801,25.1532808904848,-34.1809545567455,-0.00099999999999989,       133P    176
146.101445632251,-34.1809545567455,2.801,146.101445632251,           133P    177
-34.1809545567455,-0.00099999999999989,-1.551,1.251,                 133P    178
-27.9740823708833,92.9740823708833;                                  133P    179
128,1,1,1,1,0,0,1,0,0,-3.751,-3.751,-0.949,-0.949,                   135P    180
-27.9740823708833,-27.9740823708833,92.9740823708833,                135P    181
92.9740823708833,1.,1.,1.,1.,25.1532808904848,31.6190454432545,      135P    182
-0.00099999999999989,25.1532808904848,31.6190454432545,2.801,        135P    183
146.101445632251,31.6190454432545,-0.00099999999999989,              135P    184
146.101445632251,31.6190454432545,2.801,-3.751,-0.949,               135P    185
-27.9740823708833,92.9740823708833;                                  135P    186
128,1,2,1,2,0,0,0,0,0,-0.28,-0.28,0.28,0.28,-0.618728690672247,      137P    187
-0.618728690672247,-0.618728690672247,0.,0.,0.,1.,1.,                137P    188
0.95252728941922,0.95252728941922,1.,1.,146.100445632251,            137P    189
-34.1809545567455,2.8,146.100445632251,-34.1809545567455,0.,         137P    190
147.027363261368,-32.8790884000502,2.8,147.027363261368,             137P    191
-32.8790884000502,0.,147.027363261368,-31.2809545567455,2.8,         137P    192
147.027363261368,-31.2809545567455,0.,-0.28,0.28,                    137P    193
-0.618728690672247,0.;                                               137P    194
128,1,2,1,2,0,0,0,0,0,-0.28,-0.28,0.28,0.28,2.52286396291755,        139P    195
2.52286396291755,2.52286396291755,3.14159265358979,                  139P    196
3.14159265358979,3.14159265358979,1.,1.,0.952527289419221,           139P    197
0.952527289419221,1.,1.,25.1542808904848,31.6190454432545,2.8,       139P    198
25.1542808904848,31.6190454432545,0.,24.2273632613681,               139P    199
30.3171792865592,2.8,24.2273632613681,30.3171792865592,0.,           139P    200
24.2273632613681,28.7190454432545,2.8,24.2273632613681,              139P    201
28.7190454432545,0.,-0.28,0.28,2.52286396291755,                     139P    202
3.14159265358979;                                                    139P    203
128,1,1,1,1,0,0,1,0,0,-117.801,-117.801,5.00100000000003,            141P    204
5.00100000000003,-62.901,-62.901,2.90099999999998,                   141P    205
2.90099999999998,1.,1.,1.,1.,147.028363261368,-34.1819545567455,     141P    206
0.,24.226363261368,-34.1819545567455,0.,147.028363261368,            141P    207
31.6200454432545,0.,24.226363261368,31.6200454432545,0.,             141P    208
-117.801,5.00100000000003,-62.901,2.90099999999998;                  141P    209
128,1,2,1,2,0,0,0,0,0,-0.28,-0.28,0.28,0.28,0.,0.,0.,                143P    210
0.618728690672247,0.618728690672247,0.618728690672247,1.,1.,         143P    211
0.95252728941922,0.95252728941922,1.,1.,147.027363261368,            143P    212
28.7190454432545,2.8,147.027363261368,28.7190454432545,0.,           143P    213
147.027363261368,30.3171792865592,2.8,147.027363261368,              143P    214
30.3171792865592,0.,146.100445632251,31.6190454432545,2.8,           143P    215
146.100445632251,31.6190454432545,0.,-0.28,0.28,0.,                  143P    216
0.618728690672247;                                                   143P    217
128,1,2,1,2,0,0,0,0,0,-0.28,-0.28,0.28,0.28,-3.14159265358979,       145P    218
-3.14159265358979,-3.14159265358979,-2.52286396291755,               145P    219
-2.52286396291755,-2.52286396291755,1.,1.,0.952527289419221,         145P    220
0.952527289419221,1.,1.,24.2273632613681,-31.2809545567455,2.8,      145P    221
24.2273632613681,-31.2809545567455,0.,24.2273632613681,              145P    222
-32.8790884000502,2.8,24.2273632613681,-32.8790884000502,0.,         145P    223
25.1542808904848,-34.1809545567455,2.8,25.1542808904848,             145P    224
-34.1809545567455,0.,-0.28,0.28,-3.14159265358979,                   145P    225
-2.52286396291755;                                                   145P    226
128,1,1,1,1,0,0,1,0,0,-61.401,-61.401,61.401,61.401,-32.901,         147P    227
-32.901,-29.749,-29.749,1.,1.,1.,1.,24.226363261368,                 147P    228
-34.1819545567455,2.8,147.028363261368,-34.1819545567455,2.8,        147P    229
24.226363261368,-31.0299545567455,2.8,147.028363261368,              147P    230
-31.0299545567455,2.8,-61.401,61.401,-32.901,-29.749;                147P    231
128,1,1,1,1,0,0,1,0,0,-5.00100000000003,-5.00100000000003,           149P    232
117.801,117.801,-0.251,-0.251,2.90099999999998,2.90099999999998,     149P    233
1.,1.,1.,1.,24.226363261368,28.4680454432545,2.8,                    149P    234
147.028363261368,28.4680454432545,2.8,24.226363261368,               149P    235
31.6200454432545,2.8,147.028363261368,31.6200454432545,2.8,          149P    236
-5.00100000000003,117.801,-0.251,2.90099999999998;                   149P    237
128,1,1,1,1,0,0,1,0,0,-61.401,-61.401,61.401,61.401,-29.751,         151P    238
-29.751,29.751,29.751,1.,1.,1.,1.,24.226363261368,                   151P    239
-31.0319545567455,4.9,147.028363261368,-31.0319545567455,4.9,        151P    240
24.226363261368,28.4700454432545,4.9,147.028363261368,               151P    241
28.4700454432545,4.9,-61.401,61.401,-29.751,29.751;                  151P    242
128,1,1,1,1,0,0,1,0,0,-1.001,-1.001,1.101,1.101,-61.401,-61.401,     153P    243
61.401,61.401,1.,1.,1.,1.,24.226363261368,-31.0309545567455,         153P    244
4.901,24.226363261368,-31.0309545567455,2.799,147.028363261368,      153P    245
-31.0309545567455,4.901,147.028363261368,-31.0309545567455,          153P    246
2.799,-1.001,1.101,-61.401,61.401;                                   153P    247
128,1,1,1,1,0,0,1,0,0,-1.101,-1.101,3.801,3.801,-44.876,-44.876,     155P    248
15.126,15.126,1.,1.,1.,1.,24.227363261368,-31.2819545567455,         155P    249
-0.00099999999999989,24.227363261368,-31.2819545567455,4.901,        155P    250
24.227363261368,28.7200454432545,-0.00099999999999989,               155P    251
24.227363261368,28.7200454432545,4.901,-1.101,3.801,-44.876,         155P    252
15.126;                                                              155P    253
128,1,1,1,1,0,0,1,0,0,-1.101,-1.101,1.001,1.001,-61.401,-61.401,     157P    254
61.401,61.401,1.,1.,1.,1.,24.226363261368,28.4690454432545,          157P    255
2.799,24.226363261368,28.4690454432545,4.901,147.028363261368,       157P    256
28.4690454432545,2.799,147.028363261368,28.4690454432545,4.901,      157P    257
-1.101,1.001,-61.401,61.401;                                         157P    258
128,1,1,1,1,0,0,1,0,0,-3.801,-3.801,1.101,1.101,-44.876,-44.876,     159P    259
15.126,15.126,1.,1.,1.,1.,147.027363261368,-31.2819545567455,        159P    260
4.901,147.027363261368,-31.2819545567455,-0.00099999999999989,       159P    261
147.027363261368,28.7200454432545,4.901,147.027363261368,            159P    262
28.7200454432545,-0.00099999999999989,-3.801,1.101,-44.876,          159P    263
15.126;                                                              159P    264
502,24,146.100445632251,-34.1809545567455,2.8,146.100445632251,      161P    265
-34.1809545567455,0.,25.1542808904848,-34.1809545567455,2.8,         161P    266
25.1542808904848,-34.1809545567455,0.,25.1542808904848,              161P    267
31.6190454432545,2.8,25.1542808904848,31.6190454432545,0.,           161P    268
146.100445632251,31.6190454432545,2.8,146.100445632251,              161P    269
31.6190454432545,0.,147.027363261368,-31.2809545567455,0.,           161P    270
147.027363261368,-31.2809545567455,2.8,24.2273632613681,             161P    271
28.7190454432545,0.,24.2273632613681,28.7190454432545,2.8,           161P    272
24.2273632613681,-31.2809545567455,0.,147.027363261368,              161P    273
28.7190454432545,0.,147.027363261368,28.7190454432545,2.8,           161P    274
24.2273632613681,-31.2809545567455,2.8,147.027363261368,             161P    275
-31.0309545567455,2.8,24.227363261368,-31.0309545567455,2.8,         161P    276
24.227363261368,28.4690454432545,2.8,147.027363261368,               161P    277
28.4690454432545,2.8,147.027363261368,-31.0309545567455,4.9,         161P    278
147.027363261368,28.4690454432545,4.9,24.227363261368,               161P    279
28.4690454432545,4.9,24.227363261368,-31.0309545567455,4.9;          161P    280
504,36,61,161,1,161,2,63,161,3,161,1,65,161,4,161,3,67,161,2,        163P    281
161,4,69,161,5,161,6,71,161,7,161,5,73,161,8,161,7,75,161,6,161,     163P    282
8,77,161,9,161,2,79,161,10,161,9,81,161,1,161,10,83,161,11,161,      163P    283
6,85,161,11,161,12,87,161,5,161,12,89,161,4,161,13,91,161,13,        163P    284
161,11,93,161,8,161,14,95,161,14,161,9,97,161,15,161,7,99,161,       163P    285
14,161,15,101,161,16,161,3,103,161,13,161,16,105,161,10,161,17,      163P    286
107,161,17,161,18,109,161,18,161,16,111,161,12,161,19,113,161,       163P    287
19,161,20,115,161,20,161,15,117,161,21,161,22,119,161,22,161,23,     163P    288
121,161,23,161,24,123,161,24,161,21,125,161,24,161,18,127,161,       163P    289
21,161,17,129,161,23,161,19,131,161,22,161,20;                       163P    290
406,1,2H64;                                                          165P    291
406,2,0,1H0;                                                         167P    292
314,100.,100.,100.,;                                                 169P    293
S      1G      4D    170P    293                                        T      1
